<svg viewBox="0 0 720 720" xmlns="http://www.w3.org/2000/svg"><path d="m365.79 509.498a8.2262 8.2262 0 0 1 -7.5131 8.8582q-4.6259.4049-9.2955.4065a107.2282 107.2282 0 0 1 -77.6222-33.3 11.4275 11.4275 0 0 1 -2.5656-4.3565l-.0093-.0284c-.198-.6612-.4186-1.3664-.6607-2.1377-1.2784-4.0992-3.0857-9.807-5.3336-16.7711q-.4293-1.2891-.8592-2.6446c-1.19-3.6583-2.4686-7.6031-3.8788-11.79l-.5289-1.5866c-.5289-1.5869-1.0578-3.2177-1.6308-4.87-.375-1.1019-.7495-2.2259-1.146-3.3719-.1765-.5729-.375-1.1459-.573-1.7189-.551-1.6529-1.124-3.35-1.719-5.0688-.0221-.0661-.0442-.11-.0662-.1763-1.4985-4.3856-3.0852-8.9475-4.738-13.6416-1.0137-2.887-2.05-5.84-3.1293-8.8373-1.1245-3.1294-2.27-6.325-3.438-9.5426-2.4906-6.7876-5.0689-13.73-7.7354-20.7158q-1.9176-5.0247-3.8788-10.0494c-.3088-.7714-.6171-1.5647-.9254-2.3581-1.6314-4.1211-3.2842-8.2643-4.9586-12.3633s-3.3724-8.1983-5.0909-12.2312c-1.1461-2.6887-2.2921-5.3773-3.46-8.0219-.573-1.3224-1.146-2.6446-1.7411-3.9668-7.5589-17.0577-15.3605-32.925-23.0518-45.95-16.7492-28.3631-36.12-58.9079-50.2691-81.21-.551-.8816-1.1019-1.7411-1.6529-2.6s-1.08-1.697-1.6087-2.5345l-.1564-.2475a39.2106 39.2106 0 0 1 1.6149-44.5065 96.2805 96.2805 0 0 1 77.1734-38.2416q.1623 0 .3246.0006c17.948.0577 34.0754 10.9854 41.5086 27.322q.9981 2.1936 2.0672 4.5666c.3744.8374.771 1.697 1.146 2.5565q2.38 5.3222 5.09 11.5038c.75 1.6749 1.4769 3.3938 2.2479 5.157 1.8956 4.43 3.9229 9.1237 6.0164 14.1043q1.9838 4.7272 4.0993 9.785c.1545.4187.33.8374.5069 1.2562.8377 2.0054 1.6528 4.033 2.5121 6.1046.2206.573.4632 1.1459.7054 1.7409 1.08 2.6667 2.1817 5.3994 3.3057 8.1762.5509 1.41 1.1239 2.8209 1.697 4.2313.573 1.4326 1.146 2.865 1.719 4.32.7274 1.829 1.4543 3.68 2.2038 5.5755q2.38 6.1158 4.87 12.5618c.0661.1763.1323.3306.1985.5068 1.146 2.9753 2.292 5.9945 3.46 9.08q1.8837 4.9917 3.8341 10.1817c.9922 2.7328 2.0279 5.51 3.0636 8.3084q4.0991 11.2064 8.3526 23.1621 1.9837 5.52 3.9449 11.2394 7.3716 21.1568 14.964 44.4729c1.0577 3.24 2.1155 6.5454 3.1733 9.8512l.1539.4628c.0882.2424.1985.5729.3309.97s.2862.8594.4627 1.3883c.0882.2425.1765.529.2642.8155.2868.8373.5951 1.7851.926 2.7548.8592 2.6224 1.8072 5.4433 2.4238 7.3165 1.08 3.3278 2.16 6.8759 3.218 10.6.3525 1.2341.6828 2.49 1.0358 3.7685l.595 2.2039.6834 2.5344c.6607 2.6445 1.3219 5.3332 1.9611 8.0438.3083 1.2342.5951 2.4683.8593 3.7245.2426.9917.4627 1.9835.6833 2.9971.3529 1.5869.7053 3.1956 1.0357 4.8045 1.0578 4.9805 2.0494 10.0494 2.9754 15.1181.3083 1.6749.6171 3.3718.9033 5.0467.3089 1.697.5951 3.394.8814 5.0687.2867 1.697.5735 3.3719.8377 5.0469s.5289 3.35.7936 5.0246c.4848 3.0854.9254 6.1267 1.3661 9.1459.375 2.5784.7274 5.1568 1.0578 7.6913 1.0136 7.4047 1.8955 14.5671 2.6665 21.3329.2206 1.9614.4406 3.9008.6392 5.796.1765 1.6529.3524 3.2616.5289 4.8484.6171 6.1486 1.1681 11.8345 1.6087 16.8812.0883.97.1765 1.8954.2427 2.8209q.1591 1.8681.3027 3.6032z" fill="#76c4ff"/><path d="m243.5635 474.3976a2.8071 2.8071 0 0 1 -2.945 3.6312 106.635 106.635 0 0 1 -94.8291-81.203l-1.5867-6.4572-6.4355-1.6088a107.1577 107.1577 0 0 1 -42.8572-185.8065 14.5007 14.5007 0 0 1 21.6041 3.2437l.0971.1531c.7269 1.168 1.4984 2.358 2.2694 3.5921.7936 1.2562 1.6314 2.5565 2.4686 3.9008 14.0826 22.1924 33.3434 52.5611 49.9382 80.6376 3.7028 6.2588 7.4271 13.245 11.1735 20.782q1.322 2.6776 2.6445 5.4213a2.21 2.21 0 0 0 .1544.3306c.9475 1.9394 1.8734 3.9229 2.7989 5.9283.4627.9917.9254 2.0054 1.3881 3.0192s.926 2.0275 1.3887 3.0633c.4627 1.0138.9254 2.05 1.3881 3.0853.926 2.05 1.8514 4.0992 2.7327 6.1928 3.24 7.4269 6.4355 15.0741 9.5427 22.81q1.9837 4.9586 3.9449 9.9171c.8593 2.2259 1.7191 4.43 2.5783 6.6556.4412 1.1019.86 2.2038 1.2784 3.3057l1.2563 3.3057c1.2558 3.3058 2.49 6.6115 3.7023 9.8731.4186 1.1019.8157 2.1817 1.2122 3.2836 1.19 3.24 2.38 6.4793 3.5258 9.6748.3971 1.0578.7715 2.1156 1.146 3.1735.3971 1.0578.7716 2.1156 1.124 3.1515l.1985.5289c.3083.8815.6171 1.7409.9254 2.6.1324.4188.2868.8375.4407 1.2562.4633 1.2562.9039 2.5345 1.3446 3.7907.4847 1.3882.9475 2.7547 1.4322 4.099q.4963 1.4545.9922 2.8429c1.1019 3.2176 2.1812 6.3249 3.2175 9.3662.2421.7494.4847 1.4986.7489 2.2259.7054 2.1157 1.4108 4.1873 2.0941 6.1927.198.6171.3965 1.2341.6166 1.8513.3309.9916.6612 1.9612.9921 2.9309.33 1.058.6828 2.0937 1.0137 3.0854.1539.5069.33.9918.4848 1.4765.33 1.0138.6391 1.9835.9695 2.9312.4627 1.4325.926 2.8208 1.3666 4.1652.4407 1.3663.8593 2.6665 1.2779 3.9227l.397 1.2562c.2642.8154.5289 1.6087.7711 2.38z" fill="#76c4ff"/><path d="m502.1041 133.4147a27.2793 27.2793 0 0 1 .7631 38.197l-.17.1825c-.75.7935-1.499 1.6089-2.2921 2.4463-1.3666 1.4545-2.7768 2.9751-4.2091 4.4958-1.2563 1.3884-2.5788 2.7768-3.9008 4.1873a.6718.6718 0 0 1 -.1764.1762q-1.3551 1.4546-2.7769 2.9752c-.7053.7492-1.4322 1.5206-2.1376 2.2919-1.6308 1.7631-3.2837 3.5042-4.9365 5.2672a2.6377 2.6377 0 0 1 -.2427.2644c-2.3141 2.4462-4.6056 4.9145-6.8977 7.3608-1.168 1.2342-2.3361 2.49-3.4822 3.7243-1.146 1.2122-2.27 2.4243-3.3939 3.6364-7.8893 8.4186-15.2723 16.2641-21.024 22.3688-.8156.8593-1.5872 1.6968-2.3141 2.4682q-1.1243 1.1569-2.1161 2.2478c-.33.3527-.6607.7053-.9916 1.0359q-7.4709 7.9006-14.8537 16.6167c-1.344 1.5868-2.6886 3.1735-4.0326 4.8043-8.6614 10.4462-17.1457 21.5313-25.3 32.7928-3.5258 4.8484-6.9859 9.7409-10.3578 14.5892q-.5618.7605-1.0578 1.5206c-1.3219 1.9173-2.6445 3.8567-3.9444 5.774-1.6528 2.4243-3.2842 4.8484-4.915 7.2727-1.9611 2.931-3.8787 5.8621-5.7737 8.7491-1.2122 1.8733-2.4244 3.7465-3.6145 5.5976q-2.3139 3.5372-4.4959 7.0083c-.9034 1.4324-1.8067 2.8649-2.688 4.2754a28.3138 28.3138 0 0 1 -1.5142 2.5784c-.28 0-1.0426-2.7768-1.0867-2.9311 0 0-37.707-108.4937-38.4565-110.4993-1.6087-4.2092-3.1734-8.33-4.7385-12.3413-.8372-2.1817-1.6744-4.32-2.49-6.4572-4.4232-11.3343-18.3754-43.7118-29.56-69.4628-12.3514-28.4366 8.0551-60.7442 39.057-61.0222q.32-.0029.641-.0028a71.5069 71.5069 0 0 1 52.5827 23.1621l5.1972 5.6373.01.0021 7.0907-2.9067a107.3 107.3 0 0 1 114.6005 21.9168z" fill="#32e095"/><g fill="#76c4ff"><path d="m590.2622 240.4975a67.1552 67.1552 0 0 1 -3.2494 39.8506l-.064.16c-.33.86-.6834 1.697-1.0358 2.5565-.7274 1.8511-1.4984 3.68-2.292 5.4875-.1765.4408-.3745.9035-.573 1.3443-.3745.8595-.75 1.719-1.1461 2.5563-.4847 1.1019-.9916 2.16-1.4763 3.1735-.7937 1.675-1.5867 3.2177-2.3362 4.584-.6833 1.2341-1.3225 2.2919-1.9391 3.1956-8.8815 13.0906-34.0714 29.0683-60.7373 46.0156-27.5476 17.4983-58.7755 37.3326-81.6735 59.8776-1.4107 1.3884-2.7988 2.7989-4.1429 4.2094l-.3309.3305c-1.1239 1.19-2.2479 2.38-3.35 3.5922-.3083.3306-.6171.6832-.9254 1.0138-1.1019 1.2121-2.16 2.4241-3.2175 3.6583-1.2563 1.4546-2.4906 2.909-3.6808 4.3635-1.2116 1.4766-2.38 2.9311-3.5478 4.4076-1.697 2.16-3.3278 4.32-4.9145 6.5013-1.7631 2.4022-3.46 4.7824-5.0688 7.1844-1.9171 2.821-3.7685 5.6639-5.51 8.4628-1.719 2.7106-3.3278 5.4212-4.87 8.0879q-1.4552 2.4793-2.7768 4.8924c-1.5647 2.843-3.0416 5.62-4.43 8.3526-.6833 1.3443-1.8167 4.0109-2.0279 4.0109-.2016 0-.2862-2.5565-.4407-3.8787-.1538-1.3664-.3083-2.7768-.4627-4.1873-.1318-1.1459-.2862-2.2919-.4186-3.46-.573-4.76-1.19-9.7188-1.8734-14.7655-.4627-3.416-.9475-6.876-1.4544-10.402-.3088-2.0716-.6171-4.1653-.9474-6.2809-.3309-2.16-.6613-4.3636-1.0358-6.5674-.3529-2.2038-.7053-4.4076-1.1019-6.6115-.3088-1.8511-.6392-3.7244-.97-5.5755-.6386-3.7024-1.344-7.3829-2.0714-11.0632-.2427-1.2783-.4848-2.5564-.7495-3.8126-1.0137-4.9806-2.0715-9.9172-3.2175-14.7876-.3083-1.3664-.6392-2.7327-.9695-4.0991l-.0153-.0635a15.6218 15.6218 0 0 1 1.82-11.7961q1.6364-2.6836 3.33-5.44c.0221-.022.0221-.022.0221-.0441 1.5425-2.49 3.1072-5.0248 4.738-7.6032 9.3-14.7876 19.746-30.7212 30.8754-46.4564 1.0137-1.4324 2.0058-2.8429 3.02-4.2534.4848-.6832.9916-1.3663 1.4764-2.0495.9916-1.3664 1.9832-2.7107 2.9754-4.077 2.9748-4.0772 6.0163-8.11 9.0573-12.0989 1.0137-1.3224 2.0494-2.6446 3.0636-3.967 4.2091-5.3992 8.4844-10.6885 12.76-15.7793 1.8734-2.2258 3.7463-4.4076 5.62-6.5673 3.2837-3.7244 6.5453-7.3387 9.8289-10.7987 4.4959-4.76 10.9535-11.6142 18.3138-19.46 1.0578-1.124 2.1156-2.27 3.2175-3.4159.2427-.2645.4848-.5289.75-.7934.8372-.9036 1.697-1.8071 2.5342-2.7327 3.35-3.57 6.7879-7.2286 10.2481-10.9309 1.1675-1.2342 2.3361-2.49 3.4816-3.7245 1.7411-1.8511 3.4822-3.7024 5.2013-5.5537s3.438-3.68 5.135-5.4874a1.3654 1.3654 0 0 0 .176-.1762c1.6308-1.7411 3.2395-3.4821 4.8267-5.157q.991-1.058 1.9832-2.1157c1.7632-1.8953 3.5038-3.7464 5.1566-5.5316.8377-.8815 1.6529-1.7631 2.4685-2.6224.7937-.86 1.5647-1.697 2.3362-2.5124a1.5691 1.5691 0 0 0 .2642-.2865q1.025-1.0909 1.9837-2.1157c1.4544-1.5647 2.8431-3.0413 4.143-4.4077.4847-.5289.97-1.0578 1.4107-1.5427l.53-.5642a6.0164 6.0164 0 0 1 7.39-1.0785 106.9526 106.9526 0 0 1 50.9067 68.8257z"/><path d="m663.1568 386.8866c0 69.1777-56.2634 126.3006-125.265 127.3144l-2.0714.0219c-6.7659 0-14.4131 0-48.22 73.1225-2.9527 6.3911-12.4734 27.2613-20.3191 47.0515-18.9788-40.0644-58.0478-88.4278-75.182-108.757a4.8777 4.8777 0 0 1 -.9029-4.6669l.0092-.0284c.0883-.3306.2206-.6612.3309-.9917.1539-.4629.3083-.9037.4848-1.3884.11-.3967.2642-.8154.4186-1.2342.2426-.6831.4848-1.41.771-2.1377a3.9555 3.9555 0 0 1 .1765-.4627q.5293-1.3556 1.0578-2.8431c.022-.066.0441-.11.0661-.1762.2648-.7052.551-1.4325.8378-2.16.5068-1.2781 1.0357-2.6225 1.6087-3.9889.22-.573.4627-1.124.7048-1.7189.4412-1.08.926-2.1817 1.4108-3.3278a293.8007 293.8007 0 0 1 13.1788-26.4678c.5068-.9035 1.0136-1.7851 1.5425-2.6886.5951-1.0138 1.2122-2.05 1.8294-3.0854.8813-1.4544 1.7631-2.909 2.6885-4.3635.8814-1.4546 1.8294-2.9091 2.821-4.3857.9695-1.4765 1.9611-2.931 2.9748-4.4076.9922-1.4765 2.05-2.9531 3.13-4.4077 2.8866-3.9889 5.9722-7.9778 9.2559-11.8784.5951-.7273 1.19-1.4326 1.8073-2.1378.7931-.9256 1.5867-1.8291 2.4239-2.7327.3088-.3746.6392-.7492 1.0136-1.124.75-.86 1.5431-1.7189 2.3583-2.5563 1.6308-1.7851 3.35-3.5262 5.113-5.2672 21.2224-20.9142 51.3931-40.0874 78.0148-56.9906 29.8838-18.9748 55.7125-35.3712 67.1507-52.23.3083-.4629.6386-.97.97-1.4986.6607-1.0359 1.322-2.1817 1.9832-3.3938.33-.6171.6834-1.2343 1.0137-1.8954 1.1019-2.0936 2.2038-4.3856 3.3057-6.7657.5289-1.168 1.08-2.358 1.6088-3.57a1.3409 1.3409 0 0 1 .11-.2644c.3309-.7493.6612-1.4986.9695-2.2478.6392-1.4987 1.2784-2.9973 1.8955-4.4959a1.1836 1.1836 0 0 1 .11-.2424c.5951-1.4325 1.1461-2.887 1.697-4.2754l.0165-.0416a3.2838 3.2838 0 0 1 5.024-1.4383 127.7218 127.7218 0 0 1 50.077 101.2242z"/></g></svg>